<?xml version="1.0" encoding="UTF-8" standalone="no"?>
<!-- This is a Stata 17.0 generated SVG file (http://www.stata.com) -->

<svg version="1.1" width="5.500in" height="4.000in" viewBox="0 0 3960 2880" xmlns="http://www.w3.org/2000/svg" xmlns:xlink="http://www.w3.org/1999/xlink">
	<desc>Stata Graph - DPEP_RD_GRAPH</desc>
	<rect x="0" y="0" width="3960" height="2880" style="fill:#EAF2F3;stroke:none"/>
	<rect x="0.00" y="0.00" width="3959.88" height="2880.00" style="fill:#FFFFFF"/>
	<rect x="2.88" y="2.88" width="3954.12" height="2874.24" style="fill:none;stroke:#EAF2F3;stroke-opacity:0.00;stroke-width:5.76"/>
	<rect x="390.80" y="100.86" width="3468.22" height="2388.33" style="fill:#FFFFFF"/>
	<rect x="393.68" y="103.74" width="3462.46" height="2382.57" style="fill:none;stroke:#FFFFFF;stroke-width:5.76"/>
	<line x1="1767.40" y1="2489.19" x2="1767.40" y2="100.86" style="stroke:#000000;stroke-width:7.20"/>
	<circle cx="752.03" cy="2402.93" r="19.29" style="fill:#000000"/>
	<circle cx="752.03" cy="2402.93" r="14.97" style="fill:none;stroke:#000000;stroke-width:8.64"/>
	<circle cx="833.21" cy="484.00" r="19.29" style="fill:#000000"/>
	<circle cx="833.21" cy="484.00" r="14.97" style="fill:none;stroke:#000000;stroke-width:8.64"/>
	<circle cx="914.39" cy="803.91" r="19.29" style="fill:#000000"/>
	<circle cx="914.39" cy="803.91" r="14.97" style="fill:none;stroke:#000000;stroke-width:8.64"/>
	<circle cx="995.69" cy="1011.32" r="19.29" style="fill:#000000"/>
	<circle cx="995.69" cy="1011.32" r="14.97" style="fill:none;stroke:#000000;stroke-width:8.64"/>
	<circle cx="1076.87" cy="880.63" r="19.29" style="fill:#000000"/>
	<circle cx="1076.87" cy="880.63" r="14.97" style="fill:none;stroke:#000000;stroke-width:8.64"/>
	<circle cx="1158.18" cy="361.73" r="19.29" style="fill:#000000"/>
	<circle cx="1158.18" cy="361.73" r="14.97" style="fill:none;stroke:#000000;stroke-width:8.64"/>
	<circle cx="1239.36" cy="571.25" r="19.29" style="fill:#000000"/>
	<circle cx="1239.36" cy="571.25" r="14.97" style="fill:none;stroke:#000000;stroke-width:8.64"/>
	<circle cx="1320.54" cy="653.92" r="19.29" style="fill:#000000"/>
	<circle cx="1320.54" cy="653.92" r="14.97" style="fill:none;stroke:#000000;stroke-width:8.64"/>
	<circle cx="1401.84" cy="803.91" r="19.29" style="fill:#000000"/>
	<circle cx="1401.84" cy="803.91" r="14.97" style="fill:none;stroke:#000000;stroke-width:8.64"/>
	<circle cx="1483.02" cy="744.63" r="19.29" style="fill:#000000"/>
	<circle cx="1483.02" cy="744.63" r="14.97" style="fill:none;stroke:#000000;stroke-width:8.64"/>
	<circle cx="1564.20" cy="910.46" r="19.29" style="fill:#000000"/>
	<circle cx="1564.20" cy="910.46" r="14.97" style="fill:none;stroke:#000000;stroke-width:8.64"/>
	<circle cx="1645.50" cy="1203.63" r="19.29" style="fill:#000000"/>
	<circle cx="1645.50" cy="1203.63" r="14.97" style="fill:none;stroke:#000000;stroke-width:8.64"/>
	<circle cx="1726.68" cy="863.80" r="19.29" style="fill:#000000"/>
	<circle cx="1726.68" cy="863.80" r="14.97" style="fill:none;stroke:#000000;stroke-width:8.64"/>
	<circle cx="1832.61" cy="1818.93" r="19.29" style="fill:#000000"/>
	<circle cx="1832.61" cy="1818.93" r="14.97" style="fill:none;stroke:#000000;stroke-width:8.64"/>
	<circle cx="1963.17" cy="1825.25" r="19.29" style="fill:#000000"/>
	<circle cx="1963.17" cy="1825.25" r="14.97" style="fill:none;stroke:#000000;stroke-width:8.64"/>
	<circle cx="2093.73" cy="2203.93" r="19.29" style="fill:#000000"/>
	<circle cx="2093.73" cy="2203.93" r="14.97" style="fill:none;stroke:#000000;stroke-width:8.64"/>
	<circle cx="2224.28" cy="2402.93" r="19.29" style="fill:#000000"/>
	<circle cx="2224.28" cy="2402.93" r="14.97" style="fill:none;stroke:#000000;stroke-width:8.64"/>
	<circle cx="2354.84" cy="2402.93" r="19.29" style="fill:#000000"/>
	<circle cx="2354.84" cy="2402.93" r="14.97" style="fill:none;stroke:#000000;stroke-width:8.64"/>
	<circle cx="2485.40" cy="2402.93" r="19.29" style="fill:#000000"/>
	<circle cx="2485.40" cy="2402.93" r="14.97" style="fill:none;stroke:#000000;stroke-width:8.64"/>
	<circle cx="2615.95" cy="2402.93" r="19.29" style="fill:#000000"/>
	<circle cx="2615.95" cy="2402.93" r="14.97" style="fill:none;stroke:#000000;stroke-width:8.64"/>
	<circle cx="2746.51" cy="2402.93" r="19.29" style="fill:#000000"/>
	<circle cx="2746.51" cy="2402.93" r="14.97" style="fill:none;stroke:#000000;stroke-width:8.64"/>
	<circle cx="2877.06" cy="2402.93" r="19.29" style="fill:#000000"/>
	<circle cx="2877.06" cy="2402.93" r="14.97" style="fill:none;stroke:#000000;stroke-width:8.64"/>
	<circle cx="3007.62" cy="1283.58" r="19.29" style="fill:#000000"/>
	<circle cx="3007.62" cy="1283.58" r="14.97" style="fill:none;stroke:#000000;stroke-width:8.64"/>
	<circle cx="3138.18" cy="2402.93" r="19.29" style="fill:#000000"/>
	<circle cx="3138.18" cy="2402.93" r="14.97" style="fill:none;stroke:#000000;stroke-width:8.64"/>
	<circle cx="3268.73" cy="1563.38" r="19.29" style="fill:#000000"/>
	<circle cx="3268.73" cy="1563.38" r="14.97" style="fill:none;stroke:#000000;stroke-width:8.64"/>
	<circle cx="3399.29" cy="2402.93" r="19.29" style="fill:#000000"/>
	<circle cx="3399.29" cy="2402.93" r="14.97" style="fill:none;stroke:#000000;stroke-width:8.64"/>
	<circle cx="3529.85" cy="2402.93" r="19.29" style="fill:#000000"/>
	<circle cx="3529.85" cy="2402.93" r="14.97" style="fill:none;stroke:#000000;stroke-width:8.64"/>
	<path d=" M711.44 1119.23 L713.54 1115.76 L715.65 1112.30 L717.75 1108.83 L719.85 1105.49 L721.96 1102.03 L724.06 1098.69 L726.17 1095.22 L728.27 1091.88 L730.37 1088.54 L732.60 1085.20 L734.70 1081.86 L736.81 1078.64 L738.91 1075.30 L741.02 1072.08 L743.12 1068.74 L745.22 1065.52 L747.33 1062.30 L749.43 1059.09 L751.53 1055.87 L753.76 1052.65 L755.87 1049.43 L757.97 1046.34 L760.07 1043.12 L762.18 1040.03 L764.28 1036.93 L766.38 1033.72 L768.49 1030.62 L770.59 1027.53 L772.70 1024.56 L774.92 1021.46 L777.03 1018.37 L779.13 1015.40 L781.23 1012.31 L783.34 1009.34 L785.44 1006.37 L787.55 1003.40 L789.65 1000.43 L791.75 997.46 L793.86 994.49 L796.08 991.64 L798.19 988.67 L800.29 985.82 L802.40 982.98 L804.50 980.13 L806.60 977.28 L808.71 974.44 L810.81 971.59 L812.91 968.75 L815.02 966.02 L817.25 963.18 L819.35 960.45 L821.45 957.61 L823.56 954.88 L825.66 952.16 L827.76 949.44 L829.87 946.84 L831.97 944.12 L834.08 941.40 L836.18 938.80 L838.41 936.07 L840.51 933.48 L842.61 930.88 L844.72 928.28 L846.82 925.68 L848.93 923.08 L851.03 920.61 L853.13 918.01 L855.24 915.53 L857.34 912.93 L859.57 910.46 L861.67 907.98 L863.78 905.51 L865.88 903.03 L867.98 900.56 L870.09 898.08 L872.19 895.73 L874.29 893.26 L876.40 890.90 L878.50 888.55 L880.73 886.20 L882.83 883.85 L884.94 881.50 L887.04 879.15 L889.14 876.80 L891.25 874.57 L893.35 872.22 L895.46 869.99 L897.56 867.76 L899.66 865.41 L901.89 863.18 L903.99 861.08 L906.10 858.85 L908.20 856.62 L910.31 854.52 L912.41 852.29 L914.51 850.19 L916.62 847.96 L918.72 845.86 L920.82 843.75 L923.05 841.65 L925.16 839.67 L927.26 837.57 L929.36 835.46 L931.47 833.48 L933.57 831.50 L935.67 829.40 L937.78 827.42 L939.88 825.44 L941.99 823.46 L944.21 821.60 L946.32 819.62 L948.42 817.64 L950.52 815.79 L952.63 813.93 L954.73 811.95 L956.84 810.09 L958.94 808.24 L961.04 806.38 L963.15 804.65 L965.37 802.79 L967.48 800.94 L969.58 799.20 L971.69 797.47 L973.79 795.61 L975.89 793.88 L978.00 792.15 L980.10 790.42 L982.20 788.81 L984.31 787.07 L986.54 785.34 L988.64 783.73 L990.74 782.12 L992.85 780.52 L994.95 778.78 L997.05 777.17 L999.16 775.69 L1001.26 774.08 L1003.37 772.47 L1005.47 770.99 L1007.70 769.38 L1009.80 767.89 L1011.90 766.41 L1014.01 764.92 L1016.11 763.44 L1018.22 761.95 L1020.32 760.47 L1022.42 758.98 L1024.53 757.62 L1026.63 756.14 L1028.73 754.77 L1030.96 753.41 L1033.07 752.05 L1035.17 750.69 L1037.27 749.33 L1039.38 747.97 L1041.48 746.61 L1043.58 745.37 L1045.69 744.01 L1047.79 742.77 L1049.90 741.53 L1052.12 740.30 L1054.23 739.06 L1056.33 737.82 L1058.43 736.58 L1060.54 735.47 L1062.64 734.23 L1064.74 733.12 L1066.85 731.88 L1068.95 730.77 L1071.06 729.65 L1073.28 728.54 L1075.39 727.43 L1077.49 726.44 L1079.60 725.32 L1081.70 724.21 L1083.80 723.22 L1085.91 722.23 L1088.01 721.11 L1090.11 720.12 L1092.22 719.13 L1094.45 718.27 L1096.55 717.28 L1098.65 716.29 L1100.76 715.42 L1102.86 714.43 L1104.96 713.56 L1107.07 712.70 L1109.17 711.83 L1111.28 710.97 L1113.38 710.10 L1115.61 709.23 L1117.71 708.49 L1119.81 707.62 L1121.92 706.88 L1124.02 706.02 L1126.13 705.27 L1128.23 704.53 L1130.33 703.79 L1132.44 703.05 L1134.54 702.43 L1136.77 701.68 L1138.87 700.94 L1140.97 700.32 L1143.08 699.70 L1145.18 699.09 L1147.29 698.34 L1149.39 697.85 L1151.49 697.23 L1153.60 696.61 L1155.70 695.99 L1157.93 695.50 L1160.03 694.88 L1162.14 694.38 L1164.24 693.89 L1166.34 693.39 L1168.45 692.90 L1170.55 692.40 L1172.66 691.91 L1174.76 691.54 L1176.86 691.04 L1179.09 690.67 L1181.19 690.30 L1183.30 689.80 L1185.40 689.43 L1187.51 689.06 L1189.61 688.81 L1191.71 688.44 L1193.82 688.07 L1195.92 687.82 L1198.02 687.45 L1200.25 687.21 L1202.36 686.96 L1204.46 686.71 L1206.56 686.46 L1208.67 686.22 L1210.77 685.97 L1212.87 685.84 L1214.98 685.60 L1217.08 685.47 L1219.19 685.35 L1221.41 685.23 L1223.52 685.10 L1225.62 684.98 L1227.72 684.85 L1229.83 684.73 L1231.93 684.61 L1234.04 684.61 L1236.14 684.61 L1238.24 684.48 L1240.35 684.48 L1242.57 684.48 L1244.68 684.48 L1246.78 684.48 L1248.89 684.61 L1250.99 684.61 L1253.09 684.73 L1255.20 684.73 L1257.30 684.85 L1259.40 684.98 L1261.51 685.10 L1263.73 685.23 L1265.84 685.35 L1267.94 685.47 L1270.05 685.72 L1272.15 685.84 L1274.25 686.09 L1276.36 686.34 L1278.46 686.59 L1280.57 686.83 L1282.67 687.08 L1284.90 687.33 L1287.00 687.58 L1289.10 687.82 L1291.21 688.20 L1293.31 688.57 L1295.42 688.81 L1297.52 689.19 L1299.62 689.56 L1301.73 689.93 L1303.83 690.42 L1306.06 690.79 L1308.16 691.17 L1310.27 691.66 L1312.37 692.03 L1314.47 692.53 L1316.58 693.02 L1318.68 693.52 L1320.78 694.01 L1322.89 694.51 L1324.99 695.13 L1327.22 695.62 L1329.32 696.24 L1331.43 696.73 L1333.53 697.35 L1335.63 697.97 L1337.74 698.59 L1339.84 699.21 L1341.95 699.83 L1344.05 700.45 L1346.15 701.19 L1348.38 701.81 L1350.48 702.55 L1352.59 703.29 L1354.69 704.04 L1356.80 704.78 L1358.90 705.52 L1361.00 706.26 L1363.11 707.01 L1365.21 707.87 L1367.31 708.61 L1369.54 709.48 L1371.65 710.35 L1373.75 711.21 L1375.85 712.08 L1377.96 712.95 L1380.06 713.81 L1382.16 714.68 L1384.27 715.67 L1386.37 716.53 L1388.48 717.52 L1390.70 718.51 L1392.81 719.50 L1394.91 720.50 L1397.01 721.49 L1399.12 722.48 L1401.22 723.47 L1403.33 724.58 L1405.43 725.57 L1407.53 726.68 L1409.64 727.80 L1411.86 728.91 L1413.97 730.02 L1416.07 731.14 L1418.18 732.25 L1420.28 733.37 L1422.38 734.60 L1424.49 735.72 L1426.59 736.95 L1428.69 738.19 L1430.80 739.43 L1433.03 740.67 L1435.13 741.90 L1437.23 743.14 L1439.34 744.38 L1441.44 745.74 L1443.54 746.98 L1445.65 748.34 L1447.75 749.70 L1449.86 751.06 L1451.96 752.42 L1454.19 753.78 L1456.29 755.15 L1458.39 756.51 L1460.50 757.99 L1462.60 759.35 L1464.71 760.84 L1466.81 762.32 L1468.91 763.81 L1471.02 765.29 L1473.12 766.78 L1475.35 768.26 L1477.45 769.87 L1479.56 771.36 L1481.66 772.97 L1483.76 774.45 L1485.87 776.06 L1487.97 777.67 L1490.07 779.28 L1492.18 780.89 L1494.28 782.50 L1496.51 784.23 L1498.61 785.84 L1500.72 787.57 L1502.82 789.18 L1504.92 790.91 L1507.03 792.64 L1509.13 794.38 L1511.24 796.11 L1513.34 797.96 L1515.44 799.70 L1517.67 801.43 L1519.77 803.29 L1521.88 805.14 L1523.98 807.00 L1526.09 808.73 L1528.19 810.59 L1530.29 812.57 L1532.40 814.42 L1534.50 816.28 L1536.60 818.26 L1538.83 820.12 L1540.94 822.10 L1543.04 824.08 L1545.14 826.06 L1547.25 828.04 L1549.35 830.02 L1551.45 832.00 L1553.56 834.10 L1555.66 836.08 L1557.77 838.18 L1559.99 840.17 L1562.10 842.27 L1564.20 844.37 L1566.30 846.48 L1568.41 848.58 L1570.51 850.81 L1572.62 852.91 L1574.72 855.02 L1576.82 857.24 L1578.93 859.47 L1581.15 861.57 L1583.26 863.80 L1585.36 866.03 L1587.47 868.38 L1589.57 870.61 L1591.67 872.84 L1593.78 875.19 L1595.88 877.41 L1597.98 879.77 L1600.09 882.12 L1602.32 884.47 L1604.42 886.82 L1606.52 889.17 L1608.63 891.52 L1610.73 894.00 L1612.83 896.35 L1614.94 898.82 L1617.04 901.30 L1619.15 903.65 L1621.25 906.13 L1623.48 908.60 L1625.58 911.20 L1627.68 913.67 L1629.79 916.15 L1631.89 918.75 L1634.00 921.22 L1636.10 923.82 L1638.20 926.42 L1640.31 929.02 L1642.41 931.62 L1644.64 934.22 L1646.74 936.82 L1648.85 939.54 L1650.95 942.14 L1653.05 944.86 L1655.16 947.58 L1657.26 950.18 L1659.36 952.90 L1661.47 955.63 L1663.57 958.47 L1665.80 961.20 L1667.90 963.92 L1670.01 966.77 L1672.11 969.49 L1674.21 972.33 L1676.32 975.18 L1678.42 978.03 L1680.53 980.87 L1682.63 983.72 L1684.73 986.57 L1686.96 989.54 L1689.06 992.38 L1691.17 995.35 L1693.27 998.32 L1695.38 1001.29 L1697.48 1004.26 L1699.58 1007.23 L1701.69 1010.20 L1703.79 1013.17 L1705.89 1016.14 L1708.12 1019.24 L1710.23 1022.33 L1712.33 1025.30 L1714.43 1028.39 L1716.54 1031.49 L1718.64 1034.58 L1720.74 1037.68 L1722.85 1040.89 L1724.95 1043.99 L1727.06 1047.21 L1729.28 1050.30 L1731.39 1053.52 L1733.49 1056.73 L1735.59 1059.95 L1737.70 1063.17 L1739.80 1066.39 L1741.91 1069.60 L1744.01 1072.95 L1746.11 1076.16 L1748.22 1079.50 L1750.44 1082.85 L1752.55 1086.19 L1754.65 1089.53 L1756.76 1092.87 L1758.86 1096.21 L1760.96 1099.55 L1763.07 1103.02 L1765.17 1106.36 L1767.27 1109.82" stroke-linejoin="round" style="fill:none;stroke:#000000;stroke-width:7.20"/>
	<path d=" M1767.27 1700.13 L1770.99 1706.19 L1774.70 1712.26 L1778.29 1718.20 L1782.00 1724.26 L1785.59 1730.20 L1789.30 1736.02 L1793.01 1741.96 L1796.60 1747.90 L1800.32 1753.72 L1803.90 1759.53 L1807.62 1765.35 L1811.33 1771.04 L1814.92 1776.86 L1818.63 1782.55 L1822.22 1788.24 L1825.93 1793.94 L1829.64 1799.50 L1833.23 1805.20 L1836.95 1810.77 L1840.53 1816.34 L1844.25 1821.90 L1847.96 1827.35 L1851.55 1832.92 L1855.26 1838.36 L1858.85 1843.81 L1862.56 1849.25 L1866.27 1854.58 L1869.86 1860.02 L1873.58 1865.34 L1877.16 1870.66 L1880.88 1875.86 L1884.59 1881.18 L1888.18 1886.38 L1891.89 1891.58 L1895.48 1896.78 L1899.19 1901.97 L1902.90 1907.17 L1906.49 1912.24 L1910.21 1917.32 L1913.79 1922.39 L1917.51 1927.47 L1921.22 1932.42 L1924.81 1937.37 L1928.52 1942.44 L1932.11 1947.27 L1935.82 1952.22 L1939.53 1957.17 L1943.12 1961.99 L1946.84 1966.82 L1950.42 1971.65 L1954.14 1976.35 L1957.85 1981.18 L1961.44 1985.88 L1965.15 1990.58 L1968.74 1995.28 L1972.45 1999.99 L1976.16 2004.57 L1979.75 2009.14 L1983.47 2013.72 L1987.05 2018.30 L1990.77 2022.88 L1994.48 2027.34 L1998.07 2031.79 L2001.78 2036.25 L2005.37 2040.70 L2009.08 2045.16 L2012.79 2049.49 L2016.38 2053.82 L2020.10 2058.15 L2023.68 2062.48 L2027.40 2066.69 L2031.11 2071.02 L2034.70 2075.23 L2038.41 2079.44 L2042.00 2083.64 L2045.71 2087.73 L2049.42 2091.94 L2053.01 2096.02 L2056.73 2100.10 L2060.31 2104.06 L2064.03 2108.15 L2067.74 2112.11 L2071.33 2116.07 L2075.04 2120.03 L2078.63 2123.99 L2082.34 2127.82 L2086.05 2131.78 L2089.64 2135.62 L2093.36 2139.46 L2096.94 2143.17 L2100.66 2147.01 L2104.37 2150.72 L2107.96 2154.43 L2111.67 2158.14 L2115.26 2161.86 L2118.97 2165.45 L2122.68 2169.03 L2126.27 2172.62 L2129.99 2176.21 L2133.57 2179.80 L2137.29 2183.27 L2141.00 2186.73 L2144.59 2190.20 L2148.30 2193.66 L2151.89 2197.13 L2155.60 2200.47 L2159.31 2203.81 L2162.90 2207.15 L2166.61 2210.49 L2170.20 2213.83 L2173.92 2217.05 L2177.63 2220.27 L2181.22 2223.49 L2184.93 2226.70 L2188.52 2229.92 L2192.23 2233.01 L2195.94 2236.11 L2199.53 2239.20 L2203.25 2242.30 L2206.83 2245.27 L2210.55 2248.36 L2214.26 2251.33 L2217.85 2254.30 L2221.56 2257.15 L2225.15 2260.12 L2228.86 2262.96 L2232.57 2265.81 L2236.16 2268.66 L2239.88 2271.50 L2243.46 2274.35 L2247.18 2277.07 L2250.89 2279.79 L2254.48 2282.52 L2258.19 2285.12 L2261.78 2287.84 L2265.49 2290.44 L2269.20 2293.04 L2272.79 2295.63 L2276.51 2298.23 L2280.09 2300.71 L2283.81 2303.18 L2287.52 2305.66 L2291.11 2308.13 L2294.82 2310.61 L2298.41 2312.96 L2302.12 2315.43 L2305.83 2317.79 L2309.42 2320.01 L2313.14 2322.37 L2316.72 2324.59 L2320.44 2326.94 L2324.15 2329.17 L2327.74 2331.28 L2331.45 2333.50 L2335.04 2335.61 L2338.75 2337.71 L2342.46 2339.81 L2346.05 2341.92 L2349.77 2344.02 L2353.35 2346.00 L2357.07 2347.98 L2360.78 2349.96 L2364.37 2351.94 L2368.08 2353.92 L2371.67 2355.78 L2375.38 2357.63 L2379.09 2359.49 L2382.68 2361.35 L2386.40 2363.08 L2389.98 2364.81 L2393.70 2366.67 L2397.41 2368.28 L2401.00 2370.01 L2404.71 2371.74 L2408.30 2373.35 L2412.01 2374.96 L2415.72 2376.57 L2419.31 2378.18 L2423.03 2379.66 L2426.61 2381.15 L2430.33 2382.63 L2434.04 2384.12 L2437.63 2385.60 L2441.34 2386.96 L2444.93 2388.45 L2448.64 2389.81 L2452.35 2391.05 L2455.94 2392.41 L2459.66 2393.65 L2463.24 2395.01 L2466.96 2396.25 L2470.67 2397.36 L2474.26 2398.60 L2477.97 2399.71 L2481.56 2400.95 L2485.27 2402.06 L2488.98 2403.05 L2492.57 2404.17 L2496.29 2405.16 L2499.87 2406.27 L2503.59 2407.26 L2507.30 2408.13 L2510.89 2409.12 L2514.60 2409.98 L2518.19 2410.85 L2521.90 2411.72 L2525.61 2412.58 L2529.20 2413.45 L2532.92 2414.19 L2536.50 2414.93 L2540.22 2415.68 L2543.93 2416.42 L2547.52 2417.04 L2551.23 2417.66 L2554.82 2418.40 L2558.53 2418.89 L2562.24 2419.51 L2565.83 2420.13 L2569.55 2420.63 L2573.13 2421.12 L2576.85 2421.62 L2580.56 2422.11 L2584.15 2422.48 L2587.86 2422.85 L2591.45 2423.22 L2595.16 2423.60 L2598.87 2423.97 L2602.46 2424.21 L2606.18 2424.59 L2609.76 2424.83 L2613.48 2424.96 L2617.19 2425.20 L2620.78 2425.33 L2624.49 2425.58 L2628.08 2425.70 L2631.79 2425.70 L2635.50 2425.82 L2639.09 2425.82 L2642.81 2425.95 L2646.39 2425.95 L2650.11 2425.82 L2653.82 2425.82 L2657.41 2425.70 L2661.12 2425.70 L2664.71 2425.58 L2668.42 2425.33 L2672.13 2425.20 L2675.72 2424.96 L2679.44 2424.71 L2683.02 2424.46 L2686.74 2424.21 L2690.45 2423.97 L2694.04 2423.60 L2697.75 2423.22 L2701.34 2422.85 L2705.05 2422.48 L2708.76 2421.99 L2712.35 2421.49 L2716.07 2421.12 L2719.65 2420.50 L2723.37 2420.01 L2727.08 2419.51 L2730.67 2418.89 L2734.38 2418.27 L2737.97 2417.66 L2741.68 2417.04 L2745.39 2416.29 L2748.98 2415.55 L2752.70 2414.81 L2756.28 2414.07 L2760.00 2413.32 L2763.71 2412.46 L2767.30 2411.72 L2771.01 2410.85 L2774.60 2409.86 L2778.31 2408.99 L2782.02 2408.00 L2785.61 2407.14 L2789.33 2406.15 L2792.91 2405.03 L2796.63 2404.04 L2800.34 2402.93 L2803.93 2401.94 L2807.64 2400.83 L2811.23 2399.59 L2814.94 2398.47 L2818.65 2397.24 L2822.24 2396.12 L2825.96 2394.88 L2829.54 2393.52 L2833.26 2392.29 L2836.97 2390.92 L2840.56 2389.56 L2844.27 2388.20 L2847.86 2386.84 L2851.57 2385.48 L2855.28 2383.99 L2858.87 2382.51 L2862.59 2381.02 L2866.17 2379.54 L2869.89 2377.93 L2873.60 2376.32 L2877.19 2374.84 L2880.90 2373.10 L2884.49 2371.50 L2888.20 2369.89 L2891.91 2368.15 L2895.50 2366.42 L2899.22 2364.69 L2902.80 2362.96 L2906.52 2361.10 L2910.23 2359.24 L2913.82 2357.39 L2917.53 2355.53 L2921.12 2353.67 L2924.83 2351.69 L2928.54 2349.71 L2932.13 2347.73 L2935.85 2345.75 L2939.43 2343.77 L2943.15 2341.67 L2946.86 2339.69 L2950.45 2337.59 L2954.16 2335.36 L2957.75 2333.26 L2961.46 2331.03 L2965.17 2328.92 L2968.76 2326.70 L2972.48 2324.35 L2976.06 2322.12 L2979.78 2319.77 L2983.49 2317.41 L2987.08 2315.06 L2990.79 2312.71 L2994.38 2310.36 L2998.09 2307.89 L3001.80 2305.41 L3005.39 2302.94 L3009.11 2300.46 L3012.69 2297.86 L3016.41 2295.39 L3020.12 2292.79 L3023.71 2290.19 L3027.42 2287.59 L3031.01 2284.87 L3034.72 2282.15 L3038.43 2279.42 L3042.02 2276.70 L3045.74 2273.98 L3049.32 2271.13 L3053.04 2268.41 L3056.75 2265.56 L3060.34 2262.72 L3064.05 2259.75 L3067.64 2256.90 L3071.35 2253.93 L3075.06 2250.96 L3078.65 2247.99 L3082.37 2245.02 L3085.95 2241.93 L3089.67 2238.83 L3093.38 2235.74 L3096.97 2232.64 L3100.68 2229.55 L3104.27 2226.33 L3107.98 2223.11 L3111.69 2219.90 L3115.28 2216.68 L3119.00 2213.46 L3122.58 2210.12 L3126.30 2206.78 L3130.01 2203.44 L3133.60 2200.10 L3137.31 2196.75 L3140.90 2193.29 L3144.61 2189.82 L3148.32 2186.36 L3151.91 2182.89 L3155.63 2179.43 L3159.21 2175.84 L3162.93 2172.25 L3166.64 2168.66 L3170.23 2165.07 L3173.94 2161.36 L3177.53 2157.77 L3181.24 2154.06 L3184.95 2150.35 L3188.54 2146.51 L3192.26 2142.80 L3195.84 2138.96 L3199.56 2135.13 L3203.27 2131.29 L3206.86 2127.45 L3210.57 2123.49 L3214.16 2119.66 L3217.87 2115.70 L3221.58 2111.74 L3225.17 2107.65 L3228.89 2103.69 L3232.47 2099.61 L3236.19 2095.52 L3239.90 2091.44 L3243.49 2087.23 L3247.20 2083.15 L3250.79 2078.94 L3254.50 2074.73 L3258.21 2070.53 L3261.80 2066.32 L3265.52 2061.99 L3269.10 2057.66 L3272.82 2053.32 L3276.53 2048.99 L3280.12 2044.66 L3283.83 2040.21 L3287.42 2035.75 L3291.13 2031.30 L3294.84 2026.84 L3298.43 2022.39 L3302.15 2017.81 L3305.73 2013.23 L3309.45 2008.65 L3313.16 2004.07 L3316.75 1999.37 L3320.46 1994.79 L3324.05 1990.09 L3327.76 1985.38 L3331.47 1980.68 L3335.06 1975.85 L3338.78 1971.03 L3342.36 1966.20 L3346.08 1961.38 L3349.79 1956.55 L3353.38 1951.72 L3357.09 1946.77 L3360.68 1941.82 L3364.39 1936.87 L3368.10 1931.92 L3371.69 1926.85 L3375.41 1921.77 L3378.99 1916.70 L3382.71 1911.63 L3386.42 1906.55 L3390.01 1901.35 L3393.72 1896.28 L3397.31 1891.08 L3401.02 1885.89 L3404.73 1880.56 L3408.32 1875.37 L3412.04 1870.04 L3415.62 1864.72 L3419.34 1859.40 L3423.05 1853.96 L3426.64 1848.64 L3430.35 1843.19 L3433.94 1837.74 L3437.65 1832.30 L3441.36 1826.73 L3444.95 1821.29 L3448.67 1815.72 L3452.25 1810.15 L3455.97 1804.58 L3459.68 1798.89 L3463.27 1793.32 L3466.98 1787.62 L3470.57 1781.93 L3474.28 1776.24 L3477.99 1770.42 L3481.58 1764.61 L3485.30 1758.91 L3488.88 1752.97 L3492.60 1747.16 L3496.31 1741.34 L3499.90 1735.40 L3503.61 1729.46 L3507.20 1723.52 L3510.91 1717.58 L3514.62 1711.52 L3518.21 1705.58 L3521.93 1699.51 L3525.51 1693.45 L3529.23 1687.26 L3532.94 1681.20 L3536.53 1675.01 L3540.24 1668.82 L3543.83 1662.63 L3547.54 1656.45 L3551.25 1650.13 L3554.84 1643.82 L3558.56 1637.51 L3562.14 1631.20 L3565.86 1624.89 L3569.57 1618.45 L3573.16 1612.14 L3576.87 1605.71 L3580.46 1599.15 L3584.17 1592.71 L3587.88 1586.15 L3591.47 1579.72 L3595.19 1573.16" stroke-linejoin="round" style="fill:none;stroke:#000000;stroke-width:7.20"/>
	<line x1="390.80" y1="2489.19" x2="390.80" y2="100.86" style="stroke:#000000;stroke-width:5.76"/>
	<line x1="390.80" y1="2402.81" x2="350.83" y2="2402.81" style="stroke:#000000;stroke-width:5.76"/>
	<text x="300.72" y="2402.81" style="font-family:'Helvetica';font-size:99.99px;fill:#000000" transform="rotate(-90 300.72,2402.81)" text-anchor="middle">0</text>
	<line x1="390.80" y1="1955.06" x2="350.83" y2="1955.06" style="stroke:#000000;stroke-width:5.76"/>
	<text x="300.72" y="1955.06" style="font-family:'Helvetica';font-size:99.99px;fill:#000000" transform="rotate(-90 300.72,1955.06)" text-anchor="middle">.2</text>
	<line x1="390.80" y1="1507.32" x2="350.83" y2="1507.32" style="stroke:#000000;stroke-width:5.76"/>
	<text x="300.72" y="1507.32" style="font-family:'Helvetica';font-size:99.99px;fill:#000000" transform="rotate(-90 300.72,1507.32)" text-anchor="middle">.4</text>
	<line x1="390.80" y1="1059.58" x2="350.83" y2="1059.58" style="stroke:#000000;stroke-width:5.76"/>
	<text x="300.72" y="1059.58" style="font-family:'Helvetica';font-size:99.99px;fill:#000000" transform="rotate(-90 300.72,1059.58)" text-anchor="middle">.6</text>
	<line x1="390.80" y1="611.84" x2="350.83" y2="611.84" style="stroke:#000000;stroke-width:5.76"/>
	<text x="300.72" y="611.84" style="font-family:'Helvetica';font-size:99.99px;fill:#000000" transform="rotate(-90 300.72,611.84)" text-anchor="middle">.8</text>
	<line x1="390.80" y1="164.22" x2="350.83" y2="164.22" style="stroke:#000000;stroke-width:5.76"/>
	<text x="300.72" y="164.22" style="font-family:'Helvetica';font-size:99.99px;fill:#000000" transform="rotate(-90 300.72,164.22)" text-anchor="middle">1</text>
	<text x="152.35" y="1294.96" style="font-family:'Helvetica';font-size:99.99px;fill:#000000" transform="rotate(-90 152.35,1294.96)" text-anchor="middle">Probability of treatment</text>
	<line x1="390.80" y1="2489.19" x2="3859.02" y2="2489.19" style="stroke:#000000;stroke-width:5.76"/>
	<line x1="454.16" y1="2489.19" x2="454.16" y2="2529.16" style="stroke:#000000;stroke-width:5.76"/>
	<text x="454.16" y="2619.14" style="font-family:'Helvetica';font-size:99.99px;fill:#000000" text-anchor="middle">0</text>
	<line x1="1122.41" y1="2489.19" x2="1122.41" y2="2529.16" style="stroke:#000000;stroke-width:5.76"/>
	<text x="1122.41" y="2619.14" style="font-family:'Helvetica';font-size:99.99px;fill:#000000" text-anchor="middle">20</text>
	<line x1="1790.79" y1="2489.19" x2="1790.79" y2="2529.16" style="stroke:#000000;stroke-width:5.76"/>
	<text x="1790.79" y="2619.14" style="font-family:'Helvetica';font-size:99.99px;fill:#000000" text-anchor="middle">40</text>
	<line x1="2459.04" y1="2489.19" x2="2459.04" y2="2529.16" style="stroke:#000000;stroke-width:5.76"/>
	<text x="2459.04" y="2619.14" style="font-family:'Helvetica';font-size:99.99px;fill:#000000" text-anchor="middle">60</text>
	<line x1="3127.41" y1="2489.19" x2="3127.41" y2="2529.16" style="stroke:#000000;stroke-width:5.76"/>
	<text x="3127.41" y="2619.14" style="font-family:'Helvetica';font-size:99.99px;fill:#000000" text-anchor="middle">80</text>
	<line x1="3795.66" y1="2489.19" x2="3795.66" y2="2529.16" style="stroke:#000000;stroke-width:5.76"/>
	<text x="3795.66" y="2619.14" style="font-family:'Helvetica';font-size:99.99px;fill:#000000" text-anchor="middle">100</text>
	<text x="2124.91" y="2786.70" style="font-family:'Helvetica';font-size:99.99px;fill:#000000" text-anchor="middle">Female literacy rate in 1991</text>
</svg>
