<?xml version="1.0" encoding="UTF-8" standalone="no"?>
<!-- This is a Stata 17.0 generated SVG file (http://www.stata.com) -->

<svg version="1.1" width="5.500in" height="4.000in" viewBox="0 0 3960 2880" xmlns="http://www.w3.org/2000/svg" xmlns:xlink="http://www.w3.org/1999/xlink">
	<desc>Stata Graph - Graph</desc>
	<rect x="0" y="0" width="3960" height="2880" style="fill:#EAF2F3;stroke:none"/>
	<rect x="0.00" y="0.00" width="3959.88" height="2880.00" style="fill:#FFFFFF"/>
	<rect x="2.88" y="2.88" width="3954.12" height="2874.24" style="fill:none;stroke:#EAF2F3;stroke-opacity:0.00;stroke-width:5.76"/>
	<rect x="368.78" y="100.86" width="3490.25" height="2428.42" style="fill:#FFFFFF"/>
	<rect x="371.65" y="103.74" width="3484.49" height="2422.66" style="fill:none;stroke:#FFFFFF;stroke-width:5.76"/>
	<line x1="368.78" y1="2385.11" x2="3859.02" y2="2385.11" style="stroke:#F0F0F0;stroke-width:8.64"/>
	<line x1="368.78" y1="1970.53" x2="3859.02" y2="1970.53" style="stroke:#F0F0F0;stroke-width:8.64"/>
	<line x1="368.78" y1="1556.08" x2="3859.02" y2="1556.08" style="stroke:#F0F0F0;stroke-width:8.64"/>
	<line x1="368.78" y1="1141.63" x2="3859.02" y2="1141.63" style="stroke:#F0F0F0;stroke-width:8.64"/>
	<line x1="368.78" y1="727.05" x2="3859.02" y2="727.05" style="stroke:#F0F0F0;stroke-width:8.64"/>
	<line x1="368.78" y1="312.60" x2="3859.02" y2="312.60" style="stroke:#F0F0F0;stroke-width:8.64"/>
	<line x1="368.78" y1="1556.08" x2="3859.02" y2="1556.08" style="stroke:#000000;stroke-width:8.64"/>
	<line x1="485.10" y1="2108.39" x2="516.53" y2="2156.66" style="stroke:#000000;stroke-width:8.64"/>
	<line x1="532.25" y1="2180.79" x2="563.56" y2="2229.05" style="stroke:#000000;stroke-width:8.64"/>
	<line x1="579.27" y1="2253.19" x2="610.71" y2="2301.45" style="stroke:#000000;stroke-width:8.64"/>
	<line x1="626.42" y1="2325.58" x2="657.73" y2="2373.72" style="stroke:#000000;stroke-width:8.64"/>
	<line x1="673.45" y1="2397.85" x2="704.88" y2="2446.12" style="stroke:#000000;stroke-width:8.64"/>
	<line x1="720.47" y1="2461.46" x2="750.67" y2="2412.46" style="stroke:#000000;stroke-width:8.64"/>
	<line x1="765.77" y1="2387.95" x2="795.96" y2="2338.95" style="stroke:#000000;stroke-width:8.64"/>
	<line x1="811.18" y1="2314.32" x2="841.38" y2="2265.44" style="stroke:#000000;stroke-width:8.64"/>
	<line x1="856.47" y1="2240.94" x2="886.67" y2="2191.93" style="stroke:#000000;stroke-width:8.64"/>
	<line x1="901.77" y1="2167.43" x2="931.96" y2="2118.42" style="stroke:#000000;stroke-width:8.64"/>
	<line x1="947.18" y1="2093.92" x2="950.40" y2="2088.72" style="stroke:#000000;stroke-width:8.64"/>
	<line x1="950.40" y1="2088.72" x2="999.28" y2="2104.43" style="stroke:#000000;stroke-width:8.64"/>
	<line x1="1026.75" y1="2113.34" x2="1081.45" y2="2131.04" style="stroke:#000000;stroke-width:8.64"/>
	<line x1="1108.92" y1="2139.83" x2="1163.74" y2="2157.52" style="stroke:#000000;stroke-width:8.64"/>
	<line x1="1189.61" y1="2169.28" x2="1233.91" y2="2206.04" style="stroke:#000000;stroke-width:8.64"/>
	<line x1="1256.06" y1="2224.35" x2="1300.49" y2="2261.11" style="stroke:#000000;stroke-width:8.64"/>
	<line x1="1322.64" y1="2279.55" x2="1366.94" y2="2316.18" style="stroke:#000000;stroke-width:8.64"/>
	<line x1="1389.22" y1="2334.62" x2="1415.82" y2="2356.64" style="stroke:#000000;stroke-width:8.64"/>
	<line x1="1415.82" y1="2356.64" x2="1428.08" y2="2337.22" style="stroke:#000000;stroke-width:8.64"/>
	<line x1="1443.54" y1="2312.84" x2="1474.23" y2="2264.20" style="stroke:#000000;stroke-width:8.64"/>
	<line x1="1489.58" y1="2239.82" x2="1520.39" y2="2191.06" style="stroke:#000000;stroke-width:8.64"/>
	<line x1="1535.74" y1="2166.81" x2="1566.55" y2="2118.05" style="stroke:#000000;stroke-width:8.64"/>
	<line x1="1581.90" y1="2093.67" x2="1612.59" y2="2045.03" style="stroke:#000000;stroke-width:8.64"/>
	<line x1="1627.93" y1="2020.65" x2="1648.47" y2="1988.23" style="stroke:#000000;stroke-width:8.64"/>
	<line x1="1648.47" y1="1988.23" x2="1657.88" y2="1971.40" style="stroke:#000000;stroke-width:8.64"/>
	<line x1="1671.86" y1="1946.28" x2="1699.83" y2="1895.91" style="stroke:#000000;stroke-width:8.64"/>
	<line x1="1713.94" y1="1870.79" x2="1741.91" y2="1820.42" style="stroke:#000000;stroke-width:8.64"/>
	<line x1="1755.89" y1="1795.30" x2="1783.98" y2="1744.93" style="stroke:#000000;stroke-width:8.64"/>
	<line x1="1797.96" y1="1719.81" x2="1825.93" y2="1669.44" style="stroke:#000000;stroke-width:8.64"/>
	<line x1="1840.04" y1="1644.32" x2="1868.01" y2="1593.95" style="stroke:#000000;stroke-width:8.64"/>
	<line x1="1882.98" y1="1570.44" x2="1940.52" y2="1572.42" style="stroke:#000000;stroke-width:8.64"/>
	<line x1="1969.36" y1="1573.28" x2="2026.90" y2="1575.26" style="stroke:#000000;stroke-width:8.64"/>
	<line x1="2055.74" y1="1576.25" x2="2113.28" y2="1578.11" style="stroke:#000000;stroke-width:8.64"/>
	<line x1="2136.17" y1="1595.31" x2="2181.71" y2="1630.58" style="stroke:#000000;stroke-width:8.64"/>
	<line x1="2204.48" y1="1648.28" x2="2249.90" y2="1683.67" style="stroke:#000000;stroke-width:8.64"/>
	<line x1="2272.67" y1="1701.24" x2="2318.09" y2="1736.64" style="stroke:#000000;stroke-width:8.64"/>
	<line x1="2340.86" y1="1754.33" x2="2346.55" y2="1758.67" style="stroke:#000000;stroke-width:8.64"/>
	<line x1="2346.55" y1="1758.67" x2="2364.37" y2="1711.52" style="stroke:#000000;stroke-width:8.64"/>
	<line x1="2374.52" y1="1684.54" x2="2394.81" y2="1630.70" style="stroke:#000000;stroke-width:8.64"/>
	<line x1="2404.96" y1="1603.73" x2="2425.25" y2="1549.77" style="stroke:#000000;stroke-width:8.64"/>
	<line x1="2435.40" y1="1522.79" x2="2455.70" y2="1468.96" style="stroke:#000000;stroke-width:8.64"/>
	<line x1="2465.97" y1="1441.98" x2="2486.26" y2="1388.15" style="stroke:#000000;stroke-width:8.64"/>
	<line x1="2496.41" y1="1361.17" x2="2516.70" y2="1307.34" style="stroke:#000000;stroke-width:8.64"/>
	<line x1="2526.85" y1="1280.23" x2="2547.15" y2="1226.40" style="stroke:#000000;stroke-width:8.64"/>
	<line x1="2557.29" y1="1199.42" x2="2577.59" y2="1145.47" style="stroke:#000000;stroke-width:8.64"/>
	<line x1="2603.45" y1="1140.89" x2="2661.12" y2="1139.90" style="stroke:#000000;stroke-width:8.64"/>
	<line x1="2689.83" y1="1139.40" x2="2747.50" y2="1138.41" style="stroke:#000000;stroke-width:8.64"/>
	<line x1="2776.21" y1="1137.92" x2="2811.97" y2="1137.30" style="stroke:#000000;stroke-width:8.64"/>
	<line x1="2811.97" y1="1137.30" x2="2829.92" y2="1149.80" style="stroke:#000000;stroke-width:8.64"/>
	<line x1="2853.43" y1="1166.38" x2="2900.58" y2="1199.42" style="stroke:#000000;stroke-width:8.64"/>
	<line x1="2924.21" y1="1215.88" x2="2971.36" y2="1248.92" style="stroke:#000000;stroke-width:8.64"/>
	<line x1="2994.87" y1="1265.38" x2="3042.02" y2="1298.43" style="stroke:#000000;stroke-width:8.64"/>
	<line x1="3064.92" y1="1315.87" x2="3110.46" y2="1351.14" style="stroke:#000000;stroke-width:8.64"/>
	<line x1="3133.23" y1="1368.72" x2="3178.89" y2="1403.99" style="stroke:#000000;stroke-width:8.64"/>
	<line x1="3201.66" y1="1421.56" x2="3247.20" y2="1456.71" style="stroke:#000000;stroke-width:8.64"/>
	<line x1="3270.09" y1="1474.28" x2="3277.27" y2="1479.97" style="stroke:#000000;stroke-width:8.64"/>
	<line x1="3277.27" y1="1479.97" x2="3309.69" y2="1443.96" style="stroke:#000000;stroke-width:8.64"/>
	<line x1="3329.00" y1="1422.55" x2="3367.49" y2="1379.73" style="stroke:#000000;stroke-width:8.64"/>
	<line x1="3386.79" y1="1358.45" x2="3425.40" y2="1315.63" style="stroke:#000000;stroke-width:8.64"/>
	<line x1="3444.58" y1="1294.22" x2="3483.07" y2="1251.52" style="stroke:#000000;stroke-width:8.64"/>
	<line x1="3502.37" y1="1230.11" x2="3510.05" y2="1221.57" style="stroke:#000000;stroke-width:8.64"/>
	<line x1="3510.05" y1="1221.57" x2="3545.81" y2="1192.37" style="stroke:#000000;stroke-width:8.64"/>
	<line x1="3568.08" y1="1174.18" x2="3612.76" y2="1137.79" style="stroke:#000000;stroke-width:8.64"/>
	<line x1="3635.03" y1="1119.60" x2="3679.58" y2="1083.22" style="stroke:#000000;stroke-width:8.64"/>
	<line x1="3701.98" y1="1065.03" x2="3742.70" y2="1031.74" style="stroke:#000000;stroke-width:8.64"/>
	<path d="" stroke-linejoin="round" style="fill:none;stroke:#000000;stroke-width:8.64"/>
	<line x1="485.10" y1="1158.83" x2="527.30" y2="1198.06" style="stroke:#000000;stroke-width:8.64"/>
	<line x1="548.34" y1="1217.61" x2="590.54" y2="1256.84" style="stroke:#000000;stroke-width:8.64"/>
	<line x1="611.57" y1="1276.52" x2="653.65" y2="1315.75" style="stroke:#000000;stroke-width:8.64"/>
	<line x1="674.81" y1="1335.43" x2="716.88" y2="1374.66" style="stroke:#000000;stroke-width:8.64"/>
	<line x1="730.37" y1="1350.77" x2="756.61" y2="1299.54" style="stroke:#000000;stroke-width:8.64"/>
	<line x1="769.73" y1="1273.92" x2="796.08" y2="1222.69" style="stroke:#000000;stroke-width:8.64"/>
	<line x1="809.20" y1="1196.95" x2="835.56" y2="1145.71" style="stroke:#000000;stroke-width:8.64"/>
	<line x1="848.68" y1="1120.10" x2="875.04" y2="1068.86" style="stroke:#000000;stroke-width:8.64"/>
	<line x1="888.15" y1="1043.25" x2="914.51" y2="992.01" style="stroke:#000000;stroke-width:8.64"/>
	<line x1="927.63" y1="966.39" x2="950.40" y2="921.97" style="stroke:#000000;stroke-width:8.64"/>
	<line x1="950.40" y1="921.97" x2="953.00" y2="929.27" style="stroke:#000000;stroke-width:8.64"/>
	<line x1="962.40" y1="956.49" x2="981.34" y2="1010.95" style="stroke:#000000;stroke-width:8.64"/>
	<line x1="990.74" y1="1038.17" x2="1009.68" y2="1092.62" style="stroke:#000000;stroke-width:8.64"/>
	<line x1="1019.08" y1="1119.85" x2="1037.89" y2="1174.18" style="stroke:#000000;stroke-width:8.64"/>
	<line x1="1047.42" y1="1201.40" x2="1066.23" y2="1255.85" style="stroke:#000000;stroke-width:8.64"/>
	<line x1="1075.76" y1="1283.08" x2="1094.57" y2="1337.53" style="stroke:#000000;stroke-width:8.64"/>
	<line x1="1104.10" y1="1364.76" x2="1122.91" y2="1419.09" style="stroke:#000000;stroke-width:8.64"/>
	<line x1="1132.44" y1="1446.44" x2="1151.25" y2="1500.76" style="stroke:#000000;stroke-width:8.64"/>
	<line x1="1160.65" y1="1527.99" x2="1179.59" y2="1582.44" style="stroke:#000000;stroke-width:8.64"/>
	<line x1="1191.96" y1="1577.00" x2="1220.42" y2="1526.88" style="stroke:#000000;stroke-width:8.64"/>
	<line x1="1234.65" y1="1501.88" x2="1263.12" y2="1451.88" style="stroke:#000000;stroke-width:8.64"/>
	<line x1="1277.35" y1="1426.76" x2="1305.81" y2="1376.76" style="stroke:#000000;stroke-width:8.64"/>
	<line x1="1320.04" y1="1351.76" x2="1348.50" y2="1301.77" style="stroke:#000000;stroke-width:8.64"/>
	<line x1="1362.74" y1="1276.64" x2="1391.20" y2="1226.65" style="stroke:#000000;stroke-width:8.64"/>
	<line x1="1405.55" y1="1201.65" x2="1415.82" y2="1183.46" style="stroke:#000000;stroke-width:8.64"/>
	<line x1="1415.82" y1="1183.46" x2="1435.25" y2="1152.40" style="stroke:#000000;stroke-width:8.64"/>
	<line x1="1450.47" y1="1127.89" x2="1480.92" y2="1079.01" style="stroke:#000000;stroke-width:8.64"/>
	<line x1="1496.14" y1="1054.51" x2="1526.46" y2="1005.62" style="stroke:#000000;stroke-width:8.64"/>
	<line x1="1541.68" y1="981.12" x2="1572.12" y2="932.24" style="stroke:#000000;stroke-width:8.64"/>
	<line x1="1587.34" y1="907.86" x2="1617.78" y2="858.98" style="stroke:#000000;stroke-width:8.64"/>
	<line x1="1633.01" y1="834.47" x2="1648.47" y2="809.60" style="stroke:#000000;stroke-width:8.64"/>
	<line x1="1648.47" y1="809.60" x2="1676.07" y2="815.41" style="stroke:#000000;stroke-width:8.64"/>
	<line x1="1704.29" y1="821.35" x2="1760.72" y2="833.23" style="stroke:#000000;stroke-width:8.64"/>
	<line x1="1788.93" y1="839.30" x2="1845.24" y2="851.18" style="stroke:#000000;stroke-width:8.64"/>
	<line x1="1873.45" y1="857.12" x2="1881.12" y2="858.73" style="stroke:#000000;stroke-width:8.64"/>
	<line x1="1881.12" y1="858.73" x2="1912.43" y2="820.12" style="stroke:#000000;stroke-width:8.64"/>
	<line x1="1930.50" y1="797.72" x2="1966.76" y2="752.92" style="stroke:#000000;stroke-width:8.64"/>
	<line x1="1984.95" y1="730.52" x2="2021.21" y2="685.72" style="stroke:#000000;stroke-width:8.64"/>
	<line x1="2039.28" y1="663.32" x2="2075.54" y2="618.65" style="stroke:#000000;stroke-width:8.64"/>
	<line x1="2093.60" y1="596.12" x2="2113.90" y2="571.12" style="stroke:#000000;stroke-width:8.64"/>
	<line x1="2113.90" y1="571.12" x2="2123.05" y2="594.76" style="stroke:#000000;stroke-width:8.64"/>
	<line x1="2133.45" y1="621.62" x2="2154.24" y2="675.32" style="stroke:#000000;stroke-width:8.64"/>
	<line x1="2164.76" y1="702.18" x2="2185.55" y2="755.89" style="stroke:#000000;stroke-width:8.64"/>
	<line x1="2195.94" y1="782.74" x2="2216.86" y2="836.45" style="stroke:#000000;stroke-width:8.64"/>
	<line x1="2227.25" y1="863.31" x2="2248.04" y2="916.89" style="stroke:#000000;stroke-width:8.64"/>
	<line x1="2258.44" y1="943.75" x2="2279.35" y2="997.46" style="stroke:#000000;stroke-width:8.64"/>
	<line x1="2289.75" y1="1024.31" x2="2310.54" y2="1078.02" style="stroke:#000000;stroke-width:8.64"/>
	<line x1="2320.93" y1="1104.87" x2="2341.72" y2="1158.58" style="stroke:#000000;stroke-width:8.64"/>
	<line x1="2350.63" y1="1155.98" x2="2365.85" y2="1100.42" style="stroke:#000000;stroke-width:8.64"/>
	<line x1="2373.40" y1="1072.57" x2="2388.50" y2="1017.01" style="stroke:#000000;stroke-width:8.64"/>
	<line x1="2396.05" y1="989.29" x2="2411.27" y2="933.72" style="stroke:#000000;stroke-width:8.64"/>
	<line x1="2418.82" y1="905.88" x2="2434.04" y2="850.31" style="stroke:#000000;stroke-width:8.64"/>
	<line x1="2441.59" y1="822.59" x2="2456.69" y2="767.03" style="stroke:#000000;stroke-width:8.64"/>
	<line x1="2464.23" y1="739.18" x2="2479.46" y2="683.62" style="stroke:#000000;stroke-width:8.64"/>
	<line x1="2487.00" y1="655.90" x2="2502.10" y2="600.33" style="stroke:#000000;stroke-width:8.64"/>
	<line x1="2509.65" y1="572.49" x2="2524.87" y2="516.92" style="stroke:#000000;stroke-width:8.64"/>
	<line x1="2532.42" y1="489.20" x2="2547.52" y2="433.63" style="stroke:#000000;stroke-width:8.64"/>
	<line x1="2555.07" y1="405.79" x2="2570.29" y2="350.22" style="stroke:#000000;stroke-width:8.64"/>
	<line x1="2577.84" y1="322.50" x2="2579.20" y2="317.68" style="stroke:#000000;stroke-width:8.64"/>
	<line x1="2579.20" y1="317.68" x2="2628.57" y2="335.87" style="stroke:#000000;stroke-width:8.64"/>
	<line x1="2655.55" y1="345.89" x2="2709.63" y2="365.82" style="stroke:#000000;stroke-width:8.64"/>
	<line x1="2736.61" y1="375.84" x2="2790.69" y2="395.76" style="stroke:#000000;stroke-width:8.64"/>
	<line x1="2816.55" y1="407.65" x2="2859.99" y2="445.39" style="stroke:#000000;stroke-width:8.64"/>
	<line x1="2881.77" y1="464.32" x2="2925.20" y2="502.19" style="stroke:#000000;stroke-width:8.64"/>
	<line x1="2946.98" y1="521.13" x2="2990.42" y2="559.00" style="stroke:#000000;stroke-width:8.64"/>
	<line x1="3012.08" y1="577.93" x2="3044.62" y2="606.27" style="stroke:#000000;stroke-width:8.64"/>
	<line x1="3044.62" y1="606.27" x2="3057.62" y2="612.58" style="stroke:#000000;stroke-width:8.64"/>
	<line x1="3083.48" y1="625.20" x2="3135.33" y2="650.45" style="stroke:#000000;stroke-width:8.64"/>
	<line x1="3161.19" y1="662.95" x2="3213.05" y2="688.20" style="stroke:#000000;stroke-width:8.64"/>
	<line x1="3238.91" y1="700.69" x2="3277.27" y2="719.38" style="stroke:#000000;stroke-width:8.64"/>
	<line x1="3277.27" y1="719.38" x2="3290.64" y2="712.57" style="stroke:#000000;stroke-width:8.64"/>
	<line x1="3316.25" y1="699.33" x2="3367.36" y2="673.10" style="stroke:#000000;stroke-width:8.64"/>
	<line x1="3393.10" y1="659.86" x2="3444.21" y2="633.62" style="stroke:#000000;stroke-width:8.64"/>
	<line x1="3469.83" y1="620.38" x2="3510.05" y2="599.71" style="stroke:#000000;stroke-width:8.64"/>
	<line x1="3510.05" y1="599.71" x2="3515.86" y2="588.82" style="stroke:#000000;stroke-width:8.64"/>
	<line x1="3529.47" y1="563.33" x2="3556.58" y2="512.59" style="stroke:#000000;stroke-width:8.64"/>
	<line x1="3570.19" y1="487.22" x2="3597.29" y2="436.36" style="stroke:#000000;stroke-width:8.64"/>
	<line x1="3610.90" y1="410.99" x2="3638.00" y2="360.25" style="stroke:#000000;stroke-width:8.64"/>
	<line x1="3651.49" y1="334.75" x2="3678.72" y2="284.02" style="stroke:#000000;stroke-width:8.64"/>
	<line x1="3692.21" y1="258.65" x2="3719.31" y2="207.78" style="stroke:#000000;stroke-width:8.64"/>
	<line x1="3732.92" y1="182.41" x2="3742.70" y2="164.22" style="stroke:#000000;stroke-width:8.64"/>
	<path d="" stroke-linejoin="round" style="fill:none;stroke:#000000;stroke-width:8.64"/>
	<path d=" M485.10 1633.67 L717.75 1920.66 L950.40 1505.34 L1183.05 1878.21 L1415.82 1770.05 L1648.47 1398.91 L1881.12 1214.52 L2113.90 1074.68 L2346.55 1464.87 L2579.20 729.41 L2811.97 770.49 L3044.62 953.28 L3277.27 1099.68 L3510.05 910.70 L3742.70 597.98" stroke-linejoin="round" style="fill:none;stroke:#000000;stroke-width:8.64"/>
	<rect x="473.23" y="1621.81" width="23.74" height="23.74" style="fill:#000000"/>
	<rect x="477.55" y="1626.13" width="15.10" height="15.10" style="fill:none;stroke:#000000;stroke-width:8.64"/>
	<rect x="705.88" y="1908.79" width="23.74" height="23.74" style="fill:#000000"/>
	<rect x="710.20" y="1913.11" width="15.10" height="15.10" style="fill:none;stroke:#000000;stroke-width:8.64"/>
	<rect x="938.53" y="1493.47" width="23.74" height="23.74" style="fill:#000000"/>
	<rect x="942.85" y="1497.79" width="15.10" height="15.10" style="fill:none;stroke:#000000;stroke-width:8.64"/>
	<rect x="1171.18" y="1866.34" width="23.74" height="23.74" style="fill:#000000"/>
	<rect x="1175.50" y="1870.66" width="15.10" height="15.10" style="fill:none;stroke:#000000;stroke-width:8.64"/>
	<rect x="1403.96" y="1758.18" width="23.74" height="23.74" style="fill:#000000"/>
	<rect x="1408.28" y="1762.50" width="15.10" height="15.10" style="fill:none;stroke:#000000;stroke-width:8.64"/>
	<rect x="1636.61" y="1387.04" width="23.74" height="23.74" style="fill:#000000"/>
	<rect x="1640.93" y="1391.36" width="15.10" height="15.10" style="fill:none;stroke:#000000;stroke-width:8.64"/>
	<rect x="1869.26" y="1202.65" width="23.74" height="23.74" style="fill:#000000"/>
	<rect x="1873.58" y="1206.97" width="15.10" height="15.10" style="fill:none;stroke:#000000;stroke-width:8.64"/>
	<rect x="2102.03" y="1062.81" width="23.74" height="23.74" style="fill:#000000"/>
	<rect x="2106.35" y="1067.13" width="15.10" height="15.10" style="fill:none;stroke:#000000;stroke-width:8.64"/>
	<rect x="2334.68" y="1453.01" width="23.74" height="23.74" style="fill:#000000"/>
	<rect x="2339.00" y="1457.33" width="15.10" height="15.10" style="fill:none;stroke:#000000;stroke-width:8.64"/>
	<rect x="2567.33" y="717.54" width="23.74" height="23.74" style="fill:#000000"/>
	<rect x="2571.65" y="721.86" width="15.10" height="15.10" style="fill:none;stroke:#000000;stroke-width:8.64"/>
	<rect x="2800.10" y="758.62" width="23.74" height="23.74" style="fill:#000000"/>
	<rect x="2804.42" y="762.94" width="15.10" height="15.10" style="fill:none;stroke:#000000;stroke-width:8.64"/>
	<rect x="3032.75" y="941.41" width="23.74" height="23.74" style="fill:#000000"/>
	<rect x="3037.07" y="945.73" width="15.10" height="15.10" style="fill:none;stroke:#000000;stroke-width:8.64"/>
	<rect x="3265.40" y="1087.81" width="23.74" height="23.74" style="fill:#000000"/>
	<rect x="3269.72" y="1092.13" width="15.10" height="15.10" style="fill:none;stroke:#000000;stroke-width:8.64"/>
	<rect x="3498.18" y="898.84" width="23.74" height="23.74" style="fill:#000000"/>
	<rect x="3502.50" y="903.16" width="15.10" height="15.10" style="fill:none;stroke:#000000;stroke-width:8.64"/>
	<rect x="3730.83" y="586.11" width="23.74" height="23.74" style="fill:#000000"/>
	<rect x="3735.15" y="590.43" width="15.10" height="15.10" style="fill:none;stroke:#000000;stroke-width:8.64"/>
	<line x1="368.78" y1="2529.28" x2="368.78" y2="100.86" style="stroke:#000000;stroke-width:5.76"/>
	<line x1="368.78" y1="2385.11" x2="328.80" y2="2385.11" style="stroke:#000000;stroke-width:5.76"/>
	<text x="308.76" y="2413.12" style="font-family:'Helvetica';font-size:79.94px;fill:#000000" text-anchor="end">-4</text>
	<line x1="368.78" y1="1970.53" x2="328.80" y2="1970.53" style="stroke:#000000;stroke-width:5.76"/>
	<text x="308.76" y="1998.54" style="font-family:'Helvetica';font-size:79.94px;fill:#000000" text-anchor="end">-2</text>
	<line x1="368.78" y1="1556.08" x2="328.80" y2="1556.08" style="stroke:#000000;stroke-width:5.76"/>
	<text x="308.76" y="1584.09" style="font-family:'Helvetica';font-size:79.94px;fill:#000000" text-anchor="end">0</text>
	<line x1="368.78" y1="1141.63" x2="328.80" y2="1141.63" style="stroke:#000000;stroke-width:5.76"/>
	<text x="308.76" y="1169.64" style="font-family:'Helvetica';font-size:79.94px;fill:#000000" text-anchor="end">2</text>
	<line x1="368.78" y1="727.05" x2="328.80" y2="727.05" style="stroke:#000000;stroke-width:5.76"/>
	<text x="308.76" y="755.07" style="font-family:'Helvetica';font-size:79.94px;fill:#000000" text-anchor="end">4</text>
	<line x1="368.78" y1="312.60" x2="328.80" y2="312.60" style="stroke:#000000;stroke-width:5.76"/>
	<text x="308.76" y="340.61" style="font-family:'Helvetica';font-size:79.94px;fill:#000000" text-anchor="end">6</text>
	<text x="180.51" y="1318.84" style="font-family:'Helvetica';font-size:79.94px;fill:#000000" transform="rotate(-90 180.51,1318.84)" text-anchor="middle">Coefficient</text>
	<line x1="368.78" y1="2529.28" x2="3859.02" y2="2529.28" style="stroke:#000000;stroke-width:5.76"/>
	<line x1="485.10" y1="2529.28" x2="485.10" y2="2569.25" style="stroke:#000000;stroke-width:5.76"/>
	<text x="485.10" y="2645.20" style="font-family:'Helvetica';font-size:79.94px;fill:#000000" text-anchor="middle">1961</text>
	<line x1="717.75" y1="2529.28" x2="717.75" y2="2569.25" style="stroke:#000000;stroke-width:5.76"/>
	<text x="717.75" y="2645.20" style="font-family:'Helvetica';font-size:79.94px;fill:#000000" text-anchor="middle">1962</text>
	<line x1="950.52" y1="2529.28" x2="950.52" y2="2569.25" style="stroke:#000000;stroke-width:5.76"/>
	<text x="950.52" y="2645.20" style="font-family:'Helvetica';font-size:79.94px;fill:#000000" text-anchor="middle">1963</text>
	<line x1="1183.17" y1="2529.28" x2="1183.17" y2="2569.25" style="stroke:#000000;stroke-width:5.76"/>
	<text x="1183.17" y="2645.20" style="font-family:'Helvetica';font-size:79.94px;fill:#000000" text-anchor="middle">1964</text>
	<line x1="1415.82" y1="2529.28" x2="1415.82" y2="2569.25" style="stroke:#000000;stroke-width:5.76"/>
	<text x="1415.82" y="2645.20" style="font-family:'Helvetica';font-size:79.94px;fill:#000000" text-anchor="middle">1965</text>
	<line x1="1648.60" y1="2529.28" x2="1648.60" y2="2569.25" style="stroke:#000000;stroke-width:5.76"/>
	<text x="1648.60" y="2645.20" style="font-family:'Helvetica';font-size:79.94px;fill:#000000" text-anchor="middle">1966</text>
	<line x1="1881.25" y1="2529.28" x2="1881.25" y2="2569.25" style="stroke:#000000;stroke-width:5.76"/>
	<text x="1881.25" y="2645.20" style="font-family:'Helvetica';font-size:79.94px;fill:#000000" text-anchor="middle">1967</text>
	<line x1="2113.90" y1="2529.28" x2="2113.90" y2="2569.25" style="stroke:#000000;stroke-width:5.76"/>
	<text x="2113.90" y="2645.20" style="font-family:'Helvetica';font-size:79.94px;fill:#000000" text-anchor="middle">1968</text>
	<line x1="2346.55" y1="2529.28" x2="2346.55" y2="2569.25" style="stroke:#000000;stroke-width:5.76"/>
	<text x="2346.55" y="2645.20" style="font-family:'Helvetica';font-size:79.94px;fill:#000000" text-anchor="middle">1969</text>
	<line x1="2579.32" y1="2529.28" x2="2579.32" y2="2569.25" style="stroke:#000000;stroke-width:5.76"/>
	<text x="2579.32" y="2645.20" style="font-family:'Helvetica';font-size:79.94px;fill:#000000" text-anchor="middle">1970</text>
	<line x1="2811.97" y1="2529.28" x2="2811.97" y2="2569.25" style="stroke:#000000;stroke-width:5.76"/>
	<text x="2811.97" y="2645.20" style="font-family:'Helvetica';font-size:79.94px;fill:#000000" text-anchor="middle">1971</text>
	<line x1="3044.62" y1="2529.28" x2="3044.62" y2="2569.25" style="stroke:#000000;stroke-width:5.76"/>
	<text x="3044.62" y="2645.20" style="font-family:'Helvetica';font-size:79.94px;fill:#000000" text-anchor="middle">1972</text>
	<line x1="3277.40" y1="2529.28" x2="3277.40" y2="2569.25" style="stroke:#000000;stroke-width:5.76"/>
	<text x="3277.40" y="2645.20" style="font-family:'Helvetica';font-size:79.94px;fill:#000000" text-anchor="middle">1973</text>
	<line x1="3510.05" y1="2529.28" x2="3510.05" y2="2569.25" style="stroke:#000000;stroke-width:5.76"/>
	<text x="3510.05" y="2645.20" style="font-family:'Helvetica';font-size:79.94px;fill:#000000" text-anchor="middle">1974</text>
	<line x1="3742.70" y1="2529.28" x2="3742.70" y2="2569.25" style="stroke:#000000;stroke-width:5.76"/>
	<text x="3742.70" y="2645.20" style="font-family:'Helvetica';font-size:79.94px;fill:#000000" text-anchor="middle">1975</text>
	<text x="2110.06" y="2773.53" style="font-family:'Helvetica';font-size:79.94px;fill:#000000" text-anchor="middle">Cohort</text>
</svg>
